<svg width="960" height="640" viewBox="0 0 960 640" fill="none" xmlns="http://www.w3.org/2000/svg" role="img" aria-labelledby="title desc">
  <title id="title">Codepet Labs prototype board</title>
  <desc id="desc">A minimal product board with prototype cards, mock data, and demo status.</desc>
  <rect width="960" height="640" rx="32" fill="#17202A"/>
  <rect x="48" y="48" width="864" height="544" rx="24" fill="#F7F9F6"/>
  <rect x="88" y="88" width="784" height="64" rx="16" fill="#FFFFFF" stroke="#D8E1DB" stroke-width="2"/>
  <circle cx="128" cy="120" r="12" fill="#087F8C"/>
  <rect x="160" y="108" width="148" height="12" rx="6" fill="#17202A"/>
  <rect x="160" y="130" width="92" height="8" rx="4" fill="#5C6975"/>
  <rect x="704" y="108" width="128" height="24" rx="12" fill="#D9F0EE"/>
  <rect x="88" y="200" width="224" height="288" rx="20" fill="#FFFFFF" stroke="#D8E1DB" stroke-width="2"/>
  <rect x="128" y="240" width="112" height="12" rx="6" fill="#17202A"/>
  <rect x="128" y="272" width="144" height="10" rx="5" fill="#D8E1DB"/>
  <rect x="128" y="298" width="104" height="10" rx="5" fill="#D8E1DB"/>
  <rect x="128" y="348" width="144" height="72" rx="16" fill="#D9F0EE"/>
  <path d="M156 388H244" stroke="#087F8C" stroke-width="10" stroke-linecap="round"/>
  <path d="M156 372H214" stroke="#087F8C" stroke-width="10" stroke-linecap="round"/>
  <rect x="368" y="200" width="224" height="288" rx="20" fill="#FFFFFF" stroke="#D8E1DB" stroke-width="2"/>
  <rect x="408" y="240" width="116" height="12" rx="6" fill="#17202A"/>
  <rect x="408" y="272" width="144" height="10" rx="5" fill="#D8E1DB"/>
  <rect x="408" y="298" width="92" height="10" rx="5" fill="#D8E1DB"/>
  <rect x="408" y="348" width="144" height="72" rx="16" fill="#E8E3FB"/>
  <path d="M438 398L466 374L494 388L522 362" stroke="#6552B8" stroke-width="10" stroke-linecap="round" stroke-linejoin="round"/>
  <rect x="648" y="200" width="224" height="288" rx="20" fill="#FFFFFF" stroke="#D8E1DB" stroke-width="2"/>
  <rect x="688" y="240" width="116" height="12" rx="6" fill="#17202A"/>
  <rect x="688" y="272" width="144" height="10" rx="5" fill="#D8E1DB"/>
  <rect x="688" y="298" width="116" height="10" rx="5" fill="#D8E1DB"/>
  <rect x="688" y="348" width="144" height="72" rx="16" fill="#F7E5DB"/>
  <circle cx="724" cy="384" r="16" fill="#D9653B"/>
  <circle cx="760" cy="384" r="16" fill="#D9653B" opacity=".64"/>
  <circle cx="796" cy="384" r="16" fill="#D9653B" opacity=".32"/>
  <rect x="88" y="524" width="180" height="28" rx="14" fill="#17202A"/>
  <rect x="292" y="524" width="132" height="28" rx="14" fill="#D9F0EE"/>
  <rect x="448" y="524" width="164" height="28" rx="14" fill="#E8E3FB"/>
</svg>
