<svg xmlns="http://www.w3.org/2000/svg" viewBox="0 0 160 160" role="img" aria-labelledby="title desc">
  <title id="title">Lab flask</title>
  <desc id="desc">A small chemistry flask with teal liquid and warm bubbles.</desc>
  <rect width="160" height="160" rx="28" fill="#f7faf8"/>
  <path d="M65 24h30v36l30 50c8 14-2 32-18 32H53c-16 0-26-18-18-32l30-50V24Z" fill="#ffffff" stroke="#1f2937" stroke-width="7" stroke-linejoin="round"/>
  <path d="M57 91h46l17 29c4 7-1 15-9 15H49c-8 0-13-8-9-15l17-29Z" fill="#0f9f9a"/>
  <path d="M58 65h44" fill="none" stroke="#1f2937" stroke-width="7" stroke-linecap="round"/>
  <circle cx="105" cy="45" r="8" fill="#8b5cf6"/>
  <circle cx="121" cy="63" r="5" fill="#f59e0b"/>
  <circle cx="49" cy="79" r="6" fill="#f59e0b"/>
  <circle cx="78" cy="112" r="7" fill="#ffffff" opacity=".65"/>
</svg>
