<svg width="96" height="96" viewBox="0 0 96 96" fill="none" xmlns="http://www.w3.org/2000/svg" role="img" aria-labelledby="title desc">
  <title id="title">CodePet Labs paw mark</title>
  <desc id="desc">A minimal paw mark for CodePet Labs.</desc>
  <rect width="96" height="96" rx="22" fill="#17202A"/>
  <circle cx="30" cy="34" r="9" fill="#F7F9F6"/>
  <circle cx="48" cy="27" r="10" fill="#F7F9F6"/>
  <circle cx="66" cy="34" r="9" fill="#F7F9F6"/>
  <circle cx="37" cy="49" r="8" fill="#F7F9F6"/>
  <circle cx="59" cy="49" r="8" fill="#F7F9F6"/>
  <path d="M48 46C35.5 46 27 56.5 27 67C27 73.2 31.5 78 38 78C42 78 44.5 75.8 48 75.8C51.5 75.8 54 78 58 78C64.5 78 69 73.2 69 67C69 56.5 60.5 46 48 46Z" fill="#F7F9F6"/>
  <path d="M48 46C43.5 46 39.5 47.4 36.2 49.8C39.5 52.2 43.5 53.6 48 53.6C52.5 53.6 56.5 52.2 59.8 49.8C56.5 47.4 52.5 46 48 46Z" fill="#55C7C8" fill-opacity=".72"/>
</svg>
