<svg width="640" height="420" viewBox="0 0 640 420" fill="none" xmlns="http://www.w3.org/2000/svg" role="img" aria-labelledby="title desc">
  <title id="title">TapCheck attendance prototype</title>
  <desc id="desc">A tap attendance grid with present and review states.</desc>
  <rect width="640" height="420" rx="28" fill="#F7E5DB"/>
  <rect x="48" y="48" width="544" height="324" rx="24" fill="#FFFFFF" stroke="#EBCDBE" stroke-width="2"/>
  <rect x="88" y="88" width="464" height="56" rx="18" fill="#F2F6F4"/>
  <rect x="112" y="110" width="164" height="12" rx="6" fill="#17202A"/>
  <rect x="416" y="104" width="104" height="24" rx="12" fill="#F7E5DB"/>
  <g fill="#D9653B">
    <circle cx="128" cy="214" r="28"/>
    <circle cx="216" cy="214" r="28" opacity=".72"/>
    <circle cx="304" cy="214" r="28" opacity=".44"/>
    <circle cx="392" cy="214" r="28" opacity=".72"/>
    <circle cx="480" cy="214" r="28"/>
  </g>
  <g fill="#F2F6F4">
    <rect x="100" y="272" width="56" height="14" rx="7"/>
    <rect x="188" y="272" width="56" height="14" rx="7"/>
    <rect x="276" y="272" width="56" height="14" rx="7"/>
    <rect x="364" y="272" width="56" height="14" rx="7"/>
    <rect x="452" y="272" width="56" height="14" rx="7"/>
  </g>
</svg>
